<svg viewBox="0 0 653 556" fill="none" xmlns="http://www.w3.org/2000/svg">
<path fill-rule="evenodd" clip-rule="evenodd" d="M55.3848 95.4219C55.3848 94.3173 56.2802 93.4219 57.3848 93.4219H79.3848C80.4893 93.4219 81.3848 94.3173 81.3848 95.4219V117.422C81.3848 118.526 80.4893 119.422 79.3848 119.422H57.3848C56.2802 119.422 55.3848 118.526 55.3848 117.422V95.4219ZM59.3848 97.4219V115.422H77.3848V97.4219H59.3848Z" fill="#E6E6E6"/>
<path d="M107.348 48.3347L104.962 70.9726L126.289 59.6594L107.348 48.3347ZM105.693 44.9384C107.02 44.2343 108.563 44.2334 109.738 44.9361L128.679 56.2608C129.851 56.9617 130.48 58.2561 130.328 59.6571C130.177 61.0581 129.268 62.3534 127.944 63.0557L106.618 74.3688C105.294 75.0711 103.755 75.074 102.581 74.3763C101.406 73.6787 100.774 72.3863 100.922 70.9853L103.307 48.3474C103.456 46.9426 104.365 45.6426 105.693 44.9384Z" fill="#E6E6E6"/>
<path d="M652.536 397.969H626.536V423.969H652.536V397.969Z" fill="white"/>
<path fill-rule="evenodd" clip-rule="evenodd" d="M626.536 399.969C626.536 398.864 627.432 397.969 628.536 397.969H650.536C651.641 397.969 652.536 398.864 652.536 399.969V421.969C652.536 423.073 651.641 423.969 650.536 423.969H628.536C627.432 423.969 626.536 423.073 626.536 421.969V399.969ZM630.536 401.969V419.969H648.536V401.969H630.536Z" fill="#E6E6E6"/>
<path d="M597.448 459.467L595.062 482.105L616.388 470.792L597.448 459.467ZM595.792 456.071C597.12 455.367 598.662 455.366 599.838 456.069L618.779 467.394C619.951 468.095 620.579 469.389 620.428 470.79C620.276 472.191 619.368 473.486 618.044 474.188L596.717 485.502C595.394 486.204 593.855 486.207 592.681 485.509C591.506 484.811 590.874 483.519 591.021 482.118L593.407 459.48C593.555 458.075 594.465 456.775 595.792 456.071Z" fill="#E6E6E6"/>
<path d="M221.738 463.396L212.702 448.843C211.54 447.053 209.734 445.648 207.661 444.921C205.589 444.195 203.41 444.202 201.58 444.943L136.305 473.461C136.016 473.587 135.778 473.784 135.612 474.033L121.322 495.569C121.148 495.832 121.061 496.145 121.07 496.475C121.079 496.806 121.183 497.141 121.373 497.446C121.563 497.752 121.831 498.016 122.149 498.213C122.468 498.41 122.825 498.532 123.184 498.566L152.533 501.284C152.873 501.315 153.203 501.267 153.493 501.143L219.141 473.212C220.96 472.428 222.256 470.953 222.743 469.113C223.23 467.272 222.869 465.215 221.738 463.396L221.738 463.396ZM189.679 454.549L195.224 463.472L148.638 483.533L147.194 477.797C147.107 477.452 146.92 477.122 146.655 476.843C146.389 476.565 146.055 476.35 145.69 476.222L142.543 475.117L189.679 454.549ZM126.616 495.19L131.271 488.186L136.177 496.082L126.616 495.19ZM150.814 497.44L140.785 496.506L133.511 484.802L138.393 477.449L143.555 479.262L145.361 486.428C145.462 486.831 145.698 487.211 146.034 487.512L152.018 492.88L150.812 497.435L150.814 497.44ZM155.5 495.968L156.235 493.189C156.32 492.867 156.302 492.516 156.183 492.174C156.064 491.833 155.848 491.515 155.559 491.256L150.768 486.961L197.354 466.9L202.898 475.823L155.5 495.968ZM217.005 469.829L206.335 474.364L193.097 453.058L203.701 448.431C204.617 448.063 205.705 448.061 206.74 448.424C207.775 448.788 208.677 449.489 209.259 450.383L218.296 464.926C218.861 465.834 219.042 466.86 218.8 467.779C218.558 468.697 217.913 469.434 217.006 469.827L217.005 469.829Z" fill="#E6E6E6"/>
<path d="M488.752 500.871L415.484 522.799C412.768 523.609 409.926 523.394 407.582 522.2C405.239 521.006 403.585 518.932 402.983 516.431L390.389 463.804C387.649 452.354 389.96 439.895 396.814 429.168C403.667 418.441 414.502 410.324 426.935 406.603C439.368 402.882 452.38 403.862 463.108 409.327C473.837 414.792 481.404 424.295 484.144 435.744L496.738 488.372C497.334 490.874 496.828 493.595 495.33 495.938C493.833 498.281 491.468 500.055 488.752 500.871ZM427.762 410.058C416.331 413.491 406.371 420.96 400.068 430.826C393.765 440.691 391.633 452.148 394.14 462.681L406.735 515.309C407.116 516.893 408.164 518.208 409.649 518.965C411.135 519.721 412.936 519.858 414.658 519.344L487.926 497.416C489.647 496.899 491.146 495.775 492.095 494.29C493.044 492.805 493.365 491.08 492.987 489.494L480.393 436.867C477.86 426.341 470.896 417.607 461.029 412.581C451.163 407.555 439.198 406.647 427.762 410.058Z" fill="#E6E6E6"/>
<path d="M484.645 503.046C484.152 503.192 483.638 503.152 483.214 502.936C482.79 502.719 482.491 502.343 482.383 501.89L472.172 459.234C471.721 457.385 470.493 455.851 468.755 454.971C467.017 454.09 464.912 453.933 462.9 454.535L418.573 467.792C416.561 468.394 414.808 469.705 413.696 471.438C412.584 473.171 412.204 475.185 412.64 477.039L422.851 519.695C422.947 520.145 422.848 520.63 422.576 521.046C422.303 521.462 421.879 521.776 421.394 521.921C420.909 522.066 420.401 522.031 419.979 521.822C419.558 521.614 419.255 521.249 419.137 520.806L408.926 478.15C408.273 475.389 408.835 472.388 410.49 469.806C412.145 467.223 414.758 465.269 417.755 464.373L462.082 451.116C465.078 450.22 468.214 450.454 470.801 451.768C473.389 453.082 475.217 455.368 475.884 458.124L486.095 500.78C486.148 501.005 486.154 501.242 486.11 501.477C486.066 501.713 485.974 501.942 485.84 502.153C485.705 502.363 485.53 502.551 485.325 502.704C485.12 502.857 484.889 502.974 484.645 503.046Z" fill="#E6E6E6"/>
<path d="M474.972 468.859L413.741 485.728C413.269 485.848 412.779 485.806 412.377 485.61C411.975 485.414 411.691 485.08 411.588 484.68C411.485 484.28 411.569 483.845 411.824 483.468C412.078 483.092 412.482 482.803 412.949 482.664L474.181 465.796C474.653 465.675 475.142 465.718 475.545 465.914C475.947 466.109 476.23 466.443 476.333 466.843C476.437 467.243 476.352 467.678 476.098 468.055C475.843 468.432 475.439 468.72 474.972 468.859Z" fill="#E6E6E6"/>
<path d="M470.411 481.997L457.467 485.869C457.186 485.954 456.895 485.979 456.616 485.942C456.336 485.906 456.075 485.809 455.852 485.659C455.629 485.509 455.45 485.31 455.329 485.076C455.207 484.843 455.145 484.581 455.149 484.31L455.317 472.785C455.323 472.38 455.474 471.977 455.745 471.639C456.017 471.301 456.392 471.049 456.812 470.924L464.297 468.684C464.716 468.559 465.154 468.567 465.54 468.708C465.926 468.85 466.237 469.115 466.423 469.462L471.718 479.353C471.842 479.585 471.906 479.846 471.906 480.117C471.905 480.387 471.839 480.659 471.714 480.914C471.588 481.168 471.405 481.398 471.18 481.586C470.954 481.774 470.691 481.915 470.411 481.999L470.411 481.997ZM458.994 481.744L467.246 479.275L463.644 472.548L459.107 473.905L458.994 481.744Z" fill="#E6E6E6"/>
<path d="M449.603 406.753C449.116 406.897 448.607 406.859 448.186 406.647C447.766 406.434 447.47 406.065 447.363 405.62L443.736 390.577C443.462 389.449 442.71 388.514 441.645 387.976C440.579 387.438 439.288 387.342 438.053 387.708L405.7 397.306C404.467 397.673 403.393 398.472 402.713 399.528C402.033 400.583 401.803 401.809 402.073 402.936L405.701 417.981C405.76 418.203 405.771 418.438 405.731 418.673C405.692 418.907 405.603 419.136 405.471 419.347C405.338 419.558 405.165 419.745 404.96 419.899C404.756 420.052 404.524 420.169 404.28 420.242C404.035 420.314 403.782 420.341 403.536 420.321C403.289 420.302 403.054 420.235 402.845 420.126C402.635 420.017 402.455 419.867 402.316 419.686C402.176 419.505 402.079 419.295 402.031 419.07L398.403 404.026C397.92 402.009 398.331 399.816 399.547 397.928C400.764 396.039 402.686 394.61 404.892 393.953L437.245 384.355C439.452 383.702 441.761 383.876 443.665 384.839C445.569 385.802 446.912 387.474 447.401 389.489L451.028 404.534C451.135 404.978 451.045 405.46 450.778 405.876C450.511 406.292 450.088 406.607 449.603 406.753Z" fill="#E6E6E6"/>
<path d="M441.184 405.816C440.699 405.959 440.191 405.921 439.773 405.711C439.354 405.5 439.059 405.134 438.953 404.694L436.952 396.438C436.935 396.369 436.889 396.312 436.823 396.279C436.757 396.246 436.678 396.24 436.602 396.262L410.903 403.844C410.828 403.866 410.762 403.915 410.72 403.979C410.678 404.044 410.664 404.119 410.68 404.187L412.681 412.44C412.775 412.877 412.677 413.348 412.409 413.752C412.141 414.156 411.724 414.461 411.246 414.602C410.768 414.743 410.269 414.708 409.853 414.506C409.438 414.303 409.141 413.949 409.025 413.518L407.025 405.267C406.797 404.318 406.992 403.286 407.568 402.397C408.143 401.508 409.052 400.835 410.096 400.526L435.795 392.944C436.839 392.638 437.931 392.721 438.832 393.174C439.733 393.627 440.369 394.413 440.601 395.362L442.601 403.614C442.708 404.053 442.62 404.532 442.354 404.945C442.088 405.358 441.668 405.671 441.184 405.816Z" fill="#E6E6E6"/>
<path d="M499.566 485.131L493.285 487C492.779 487.151 492.249 487.111 491.812 486.89C491.375 486.669 491.067 486.284 490.955 485.82L485.12 461.576C485.008 461.113 485.102 460.608 485.382 460.174C485.661 459.739 486.102 459.411 486.608 459.26L498.646 455.676C499.152 455.526 499.682 455.565 500.119 455.787C500.556 456.008 500.864 456.393 500.976 456.856L505.541 475.824C505.987 477.686 505.608 479.712 504.488 481.456C503.368 483.201 501.598 484.522 499.566 485.131ZM494.352 482.94L498.724 481.638C499.746 481.333 500.636 480.669 501.199 479.792C501.763 478.915 501.953 477.897 501.729 476.961L497.583 459.736L489.36 462.184L494.352 482.94Z" fill="#E6E6E6"/>
<path d="M404.952 509.528L398.671 511.398C396.637 512.001 394.509 511.84 392.754 510.95C390.999 510.061 389.761 508.516 389.311 506.654L384.746 487.689C384.69 487.459 384.684 487.217 384.729 486.976C384.773 486.736 384.867 486.501 385.005 486.286C385.143 486.07 385.322 485.879 385.532 485.722C385.742 485.565 385.979 485.445 386.23 485.37L398.274 481.785C398.525 481.71 398.784 481.682 399.037 481.701C399.29 481.72 399.531 481.786 399.748 481.896C399.964 482.006 400.151 482.157 400.298 482.341C400.445 482.525 400.548 482.738 400.603 482.968L406.439 507.212C406.55 507.675 406.456 508.18 406.177 508.614C405.899 509.048 405.458 509.377 404.952 509.528ZM388.985 488.296L393.131 505.519C393.357 506.454 393.98 507.231 394.862 507.678C395.743 508.124 396.813 508.205 397.835 507.902L402.208 506.6L397.213 485.847L388.985 488.296Z" fill="#E6E6E6"/>
<path d="M442.065 433.644L423.237 439.189C421.445 439.696 419.578 439.541 418.041 438.757C416.504 437.973 415.422 436.624 415.028 435.002C414.634 433.379 414.961 431.615 415.937 430.09C416.914 428.566 418.461 427.405 420.244 426.859L439.073 421.313C439.97 421.039 440.899 420.928 441.807 420.988C442.715 421.048 443.584 421.277 444.362 421.662C445.141 422.047 445.815 422.581 446.344 423.231C446.873 423.882 447.248 424.637 447.446 425.453C447.644 426.269 447.662 427.13 447.498 427.984C447.334 428.839 446.992 429.672 446.492 430.434C445.991 431.196 445.342 431.872 444.583 432.423C443.823 432.974 442.968 433.389 442.066 433.644L442.065 433.644ZM421.048 430.174C420.215 430.419 419.488 430.955 419.029 431.663C418.57 432.371 418.415 433.194 418.598 433.95C418.782 434.706 419.289 435.334 420.008 435.695C420.727 436.056 421.599 436.121 422.432 435.875L441.261 430.33C442.094 430.084 442.82 429.548 443.279 428.84C443.739 428.132 443.894 427.31 443.71 426.554C443.527 425.798 443.02 425.17 442.301 424.809C441.582 424.448 440.71 424.383 439.877 424.628L421.048 430.174Z" fill="#E6E6E6"/>
<path d="M85.0783 280.895C85.4586 281.163 85.9583 281.261 86.4677 281.167C86.977 281.074 87.4544 280.796 87.795 280.396C87.8804 280.296 96.3614 270.335 100.929 266.309C101.316 265.955 101.561 265.491 101.612 265.015C101.662 264.539 101.514 264.089 101.198 263.762C100.883 263.436 100.426 263.258 99.9254 263.268C99.4249 263.278 98.9208 263.475 98.5216 263.816C93.7081 268.06 85.2856 277.954 84.9282 278.374C84.5884 278.774 84.4133 279.265 84.4415 279.738C84.4696 280.21 84.6987 280.627 85.0783 280.895Z" fill="#E6E6E6"/>
<path d="M77.3703 260.188C77.6525 260.049 77.9048 259.852 78.1067 259.614C78.1921 259.514 86.6731 249.553 91.2404 245.527C91.6277 245.174 91.8729 244.709 91.9233 244.233C91.9737 243.757 91.8253 243.307 91.51 242.981C91.1947 242.654 90.7377 242.477 90.2371 242.487C89.7366 242.497 89.2325 242.693 88.8333 243.034C84.0198 247.278 75.5973 257.172 75.2399 257.592C74.9516 257.931 74.78 258.337 74.7529 258.744C74.7259 259.152 74.8448 259.536 75.0907 259.836C75.3365 260.137 75.6948 260.335 76.1079 260.399C76.521 260.463 76.9647 260.389 77.3675 260.19L77.3703 260.188Z" fill="#E6E6E6"/>
<path d="M122.281 235.994C121.795 236.235 121.405 236.638 121.194 237.114C120.984 237.59 120.971 238.1 121.159 238.532L148.784 302.046C149.345 303.342 149.306 304.872 148.675 306.299C148.044 307.727 146.873 308.936 145.418 309.662L101.49 331.503L99.8588 327.752C104.423 323.438 109.575 319.741 115.128 316.794C131.072 308.866 143.265 306.625 143.387 306.604C143.697 306.548 144 306.424 144.269 306.243C144.539 306.061 144.768 305.827 144.937 305.559C145.106 305.292 145.211 304.998 145.244 304.703C145.276 304.407 145.234 304.119 145.122 303.861L113.957 232.209C113.796 231.838 113.497 231.548 113.11 231.389C112.723 231.23 112.271 231.21 111.829 231.334C111.829 231.334 110.268 231.764 107.644 232.585C107.391 232.664 107.149 232.788 106.934 232.949C106.718 233.111 106.532 233.307 106.387 233.527C106.242 233.747 106.14 233.986 106.088 234.23C106.035 234.475 106.033 234.72 106.081 234.952C106.129 235.184 106.226 235.398 106.367 235.582C106.508 235.766 106.691 235.917 106.904 236.025C107.117 236.134 107.356 236.198 107.609 236.214C107.861 236.23 108.121 236.197 108.374 236.118C109.376 235.807 110.219 235.552 110.869 235.359L140.519 303.53C131.331 305.84 122.325 309.206 113.711 313.549C107.553 316.799 101.855 320.913 96.8404 325.731C90.7403 326.323 84.6549 328.059 78.9393 330.837C69.7042 335.443 60.9016 340.958 52.6974 347.277L22.9894 278.973C31.16 272.602 39.9499 267.051 49.1854 262.43C54.2404 259.992 59.6059 258.434 64.9963 257.837L92.8711 321.926C92.9965 322.214 93.2056 322.455 93.4771 322.623C93.7487 322.79 94.0728 322.88 94.4165 322.882C94.7603 322.883 95.1112 322.797 95.4335 322.632C95.7558 322.468 96.0378 322.23 96.2509 321.943C96.3901 321.757 110.333 303.102 124.353 290.325C124.671 290.036 124.898 289.671 125.002 289.282C125.106 288.893 125.082 288.499 124.933 288.157L95.8911 221.384C95.7763 221.121 95.5917 220.898 95.353 220.733C95.1143 220.568 94.8286 220.467 94.5203 220.438C94.2121 220.409 93.8904 220.453 93.5827 220.566C93.275 220.679 92.9905 220.858 92.7535 221.088C80.2343 233.257 68.9854 248.83 68.8725 248.985C68.5604 249.419 68.4266 249.929 68.5005 250.405C68.5744 250.88 68.8499 251.281 69.2666 251.519C69.6832 251.757 70.2067 251.814 70.7219 251.676C71.2372 251.538 71.702 251.216 72.0141 250.783C78.4853 241.967 85.5904 233.542 93.2681 225.58L120.769 288.809C109.953 298.888 99.6521 311.683 95.3014 317.276L68.1983 254.961C68.0667 254.659 67.8431 254.409 67.5524 254.24C67.2617 254.072 66.9154 253.991 66.5524 254.006C60.1615 254.492 53.761 256.253 47.7701 259.176C37.7152 264.155 28.1918 270.249 19.428 277.312C19.0879 277.599 18.8409 277.972 18.7243 278.373C18.6077 278.775 18.6278 279.183 18.7818 279.537L49.9489 351.196C50.0419 351.41 50.1813 351.598 50.3592 351.75C50.5371 351.901 50.75 352.014 50.9857 352.081C51.2214 352.147 51.4753 352.167 51.7329 352.138C51.9906 352.11 52.2468 352.034 52.4872 351.914C52.6566 351.83 52.816 351.724 52.9605 351.601C61.4489 344.805 70.6503 338.925 80.3546 334.096C85.4089 331.656 90.7749 330.096 96.1656 329.501L97.8298 333.327L53.9025 355.168C52.446 355.891 50.8263 356.069 49.3985 355.665C47.9708 355.261 46.8516 354.307 46.2864 353.013L18.6619 289.499C18.5689 289.285 18.4295 289.097 18.2516 288.945C18.0737 288.793 17.8608 288.681 17.6251 288.614C17.3894 288.547 17.1355 288.528 16.8779 288.556C16.6203 288.585 16.364 288.661 16.1237 288.78C15.8833 288.9 15.6637 289.06 15.4773 289.253C15.2908 289.445 15.1412 289.665 15.0371 289.901C14.9329 290.137 14.8762 290.383 14.8701 290.626C14.8641 290.87 14.9089 291.105 15.0019 291.319L42.6264 354.832C43.568 356.99 45.4333 358.58 47.8131 359.254C50.1929 359.928 52.8928 359.63 55.3203 358.425L146.837 312.922C149.262 311.713 151.215 309.698 152.267 307.318C153.319 304.938 153.384 302.389 152.447 300.228L124.822 236.715C124.73 236.5 124.59 236.311 124.412 236.159C124.234 236.006 124.021 235.893 123.785 235.827C123.549 235.76 123.295 235.74 123.036 235.769C122.778 235.797 122.522 235.874 122.281 235.994Z" fill="#E6E6E6"/>
<path d="M80.2345 270.504C80.6148 270.772 81.1145 270.87 81.6239 270.777C82.1333 270.683 82.6107 270.406 82.9513 270.005C83.0367 269.906 91.5177 259.945 96.085 255.918C96.4722 255.565 96.7174 255.1 96.7679 254.624C96.8183 254.148 96.6699 253.698 96.3546 253.372C96.0393 253.045 95.5822 252.868 95.0817 252.878C94.5811 252.888 94.0771 253.084 93.6778 253.425C88.8644 257.67 80.4419 267.563 80.0844 267.983C79.7446 268.384 79.5696 268.874 79.5977 269.347C79.6259 269.82 79.8549 270.236 80.2345 270.504Z" fill="#E6E6E6"/>
<path d="M89.923 291.278C90.3033 291.546 90.803 291.644 91.3124 291.55C91.8218 291.457 92.2991 291.179 92.6398 290.779C92.7251 290.679 101.206 280.718 105.773 276.691C106.161 276.338 106.406 275.874 106.456 275.398C106.507 274.921 106.358 274.472 106.043 274.145C105.728 273.819 105.271 273.641 104.77 273.651C104.27 273.661 103.766 273.858 103.366 274.199C98.5529 278.443 90.1304 288.337 89.7729 288.757C89.4331 289.157 89.2581 289.648 89.2862 290.12C89.3143 290.593 89.5434 291.009 89.923 291.278Z" fill="#E6E6E6"/>
<path d="M60.8888 271.582C49.0523 274.62 37.9825 283.386 37.5175 283.757C37.1475 284.051 36.888 284.446 36.7875 284.868C36.6871 285.29 36.7525 285.71 36.9716 286.05C37.1908 286.39 37.5486 286.626 37.9783 286.715C38.408 286.803 38.8801 286.738 39.3066 286.531C39.4619 286.457 39.6087 286.364 39.7433 286.257C39.8482 286.172 50.5103 277.73 61.4102 274.934C61.6578 274.874 61.8967 274.769 62.1131 274.628C62.3295 274.486 62.519 274.309 62.6707 274.108C62.8224 273.907 62.9332 273.685 62.9967 273.456C63.0602 273.227 63.0751 272.994 63.0405 272.772C63.006 272.55 62.9227 272.343 62.7954 272.163C62.6682 271.982 62.4996 271.832 62.2994 271.722C62.0992 271.611 61.8714 271.542 61.6292 271.518C61.3871 271.494 61.1354 271.516 60.8888 271.582Z" fill="#E6E6E6"/>
<path d="M65.7312 281.965C53.8954 285.004 42.825 293.768 42.36 294.139C41.9899 294.433 41.7304 294.828 41.63 295.25C41.5295 295.672 41.595 296.092 41.8141 296.432C42.0332 296.772 42.391 297.008 42.8207 297.097C43.2504 297.185 43.7226 297.12 44.1491 296.913C44.3043 296.839 44.4512 296.746 44.5858 296.639C44.6907 296.554 55.3527 288.112 66.2527 285.316C66.5002 285.256 66.7391 285.152 66.9555 285.01C67.1719 284.868 67.3614 284.692 67.5131 284.49C67.6648 284.289 67.7756 284.068 67.8391 283.838C67.9026 283.609 67.9175 283.376 67.8829 283.154C67.8484 282.932 67.7651 282.725 67.6378 282.545C67.5106 282.365 67.342 282.215 67.1418 282.104C66.9416 281.993 66.7138 281.924 66.4716 281.9C66.2295 281.876 65.9778 281.898 65.7312 281.965Z" fill="#E6E6E6"/>
<path d="M94.7656 301.669C95.1459 301.937 95.6456 302.035 96.155 301.942C96.6643 301.848 97.1417 301.571 97.4823 301.17C97.5677 301.07 106.049 291.11 110.616 287.083C111.014 286.732 111.269 286.264 111.325 285.781C111.381 285.299 111.233 284.843 110.914 284.512C110.594 284.182 110.13 284.004 109.623 284.019C109.116 284.034 108.607 284.239 108.209 284.591C103.395 288.835 94.973 298.728 94.6155 299.148C94.2758 299.549 94.1007 300.039 94.1288 300.512C94.157 300.985 94.386 301.401 94.7656 301.669Z" fill="#E6E6E6"/>
<path d="M70.5758 292.358C58.74 295.397 47.6688 304.159 47.2045 304.532C46.8361 304.827 46.5783 305.222 46.4788 305.643C46.3794 306.064 46.4452 306.484 46.6639 306.823C46.8826 307.162 47.2394 307.399 47.668 307.488C48.0966 307.577 48.5679 307.513 48.9943 307.309C49.1494 307.233 49.296 307.141 49.4303 307.033C49.5352 306.947 60.1973 298.506 71.0973 295.709C71.3449 295.649 71.5838 295.545 71.8002 295.403C72.0166 295.261 72.2061 295.085 72.3578 294.884C72.5095 294.682 72.6203 294.461 72.6838 294.231C72.7473 294.002 72.7622 293.77 72.7276 293.548C72.6931 293.326 72.6098 293.118 72.4825 292.938C72.3553 292.758 72.1867 292.608 71.9865 292.497C71.7863 292.386 71.5585 292.317 71.3163 292.293C71.0742 292.269 70.8225 292.291 70.5758 292.358Z" fill="#E6E6E6"/>
<path d="M80.2645 313.132C68.428 316.169 57.3581 324.935 56.8931 325.306C56.5248 325.601 56.2669 325.996 56.1675 326.417C56.0681 326.838 56.1338 327.258 56.3526 327.597C56.5713 327.936 56.9281 328.172 57.3567 328.262C57.7853 328.351 58.2566 328.287 58.6829 328.082C58.8381 328.007 58.9847 327.914 59.119 327.807C59.2239 327.721 69.886 319.279 80.786 316.483C81.0336 316.423 81.2725 316.319 81.4889 316.177C81.7053 316.035 81.8948 315.859 82.0465 315.657C82.1982 315.456 82.309 315.235 82.3725 315.005C82.436 314.776 82.4509 314.544 82.4163 314.321C82.3818 314.099 82.2984 313.892 82.1712 313.712C82.044 313.532 81.8754 313.382 81.6752 313.271C81.475 313.16 81.2472 313.091 81.005 313.067C80.7629 313.043 80.5112 313.065 80.2645 313.132Z" fill="#E6E6E6"/>
<path d="M75.4209 302.749C63.5843 305.787 52.5138 314.551 52.0495 314.923C51.6812 315.218 51.4233 315.613 51.3239 316.034C51.2245 316.456 51.2902 316.875 51.5089 317.214C51.7276 317.554 52.0845 317.79 52.5131 317.879C52.9417 317.969 53.4129 317.905 53.8393 317.7C53.9945 317.625 54.1411 317.532 54.2753 317.424C54.3803 317.339 65.0424 308.897 75.9424 306.101C76.19 306.04 76.4289 305.936 76.6453 305.794C76.8617 305.653 77.0512 305.476 77.2029 305.275C77.3546 305.074 77.4654 304.852 77.5289 304.623C77.5924 304.393 77.6073 304.161 77.5727 303.939C77.5382 303.717 77.4549 303.51 77.3276 303.329C77.2004 303.149 77.0318 302.999 76.8316 302.888C76.6314 302.778 76.4036 302.708 76.1614 302.684C75.9193 302.66 75.6676 302.682 75.4209 302.749Z" fill="#E6E6E6"/>
<path d="M486.924 82.66C487.046 83.124 487.364 83.5491 487.808 83.8418C488.253 84.1346 488.788 84.2711 489.297 84.2214C489.424 84.2094 502.074 82.9794 508.052 83.2887C508.566 83.3064 509.042 83.1425 509.378 82.8323C509.713 82.5222 509.881 82.0904 509.846 81.6299C509.81 81.1695 509.574 80.717 509.188 80.3698C508.802 80.0226 508.297 79.8084 507.782 79.7733C501.481 79.4478 488.917 80.6703 488.384 80.7224C487.876 80.7727 487.437 81.005 487.164 81.3684C486.89 81.7317 486.804 82.1962 486.924 82.66Z" fill="#E6E6E6"/>
<path d="M495.134 62.211C495.435 62.3094 495.749 62.3452 496.051 62.3155C496.178 62.3035 508.828 61.0735 514.806 61.3828C515.32 61.4005 515.796 61.2366 516.132 60.9265C516.467 60.6163 516.635 60.1846 516.6 59.7241C516.564 59.2636 516.328 58.8111 515.942 58.4639C515.556 58.1167 515.051 57.9026 514.536 57.8674C508.235 57.5419 495.671 58.7645 495.138 58.8165C494.708 58.8587 494.324 59.0322 494.049 59.3088C493.775 59.5854 493.625 59.9491 493.624 60.3412C493.623 60.7333 493.772 61.1309 494.045 61.47C494.318 61.809 494.701 62.0697 495.131 62.21L495.134 62.211Z" fill="#E6E6E6"/>
<path d="M542.926 77.2521C542.405 77.0807 541.855 77.0951 541.397 77.292C540.939 77.4888 540.611 77.8522 540.484 78.302L521.878 144.46C521.496 145.809 520.511 146.898 519.138 147.488C517.764 148.079 516.115 148.123 514.552 147.61L467.394 132.098L468.493 128.191C474.67 128.31 480.911 129.3 486.988 131.125C504.105 136.756 514.806 143.851 514.913 143.923C515.185 144.105 515.493 144.231 515.812 144.292C516.131 144.352 516.452 144.345 516.748 144.271C517.045 144.196 517.308 144.057 517.517 143.865C517.726 143.672 517.874 143.432 517.95 143.163L538.94 68.528C539.05 68.1415 539.002 67.7161 538.806 67.3225C538.61 66.9289 538.278 66.5908 537.863 66.3643C537.863 66.3643 536.404 65.5602 533.889 64.2809C533.647 64.1571 533.385 64.0746 533.12 64.0381C532.854 64.0017 532.59 64.012 532.342 64.0685C532.094 64.125 531.867 64.2266 531.674 64.3675C531.481 64.5083 531.326 64.6857 531.218 64.8894C531.109 65.0932 531.05 65.3193 531.043 65.555C531.035 65.7906 531.08 66.0311 531.175 66.2627C531.27 66.4944 531.413 66.7126 531.595 66.905C531.778 67.0974 531.996 67.2601 532.239 67.384C533.198 67.874 534 68.2911 534.616 68.6162L514.646 139.625C506.193 134.732 497.219 130.74 487.934 127.741C481.206 125.704 474.289 124.627 467.453 124.554C462.429 120.617 456.703 117.527 450.607 115.462C440.683 112.211 430.523 109.933 420.315 108.672L440.325 37.5242C450.539 38.7236 460.713 40.9657 470.646 44.206C476.025 46.0463 481.092 48.7508 485.577 52.1756L466.802 118.933C466.718 119.233 466.727 119.559 466.829 119.876C466.932 120.193 467.123 120.49 467.384 120.737C467.645 120.985 467.967 121.173 468.316 121.284C468.664 121.394 469.028 121.423 469.37 121.366C469.593 121.329 491.884 117.694 510.562 118.406C510.986 118.423 511.387 118.319 511.709 118.109C512.032 117.899 512.26 117.595 512.36 117.238L531.921 47.6856C531.998 47.4114 531.996 47.116 531.917 46.8247C531.838 46.5335 531.683 46.255 531.466 46.013C531.249 45.771 530.976 45.5727 530.671 45.435C530.366 45.2973 530.037 45.2244 529.712 45.2224C512.558 45.1419 494.248 48.4558 494.064 48.4886C493.555 48.5817 493.134 48.8586 492.894 49.2585C492.653 49.6584 492.613 50.1484 492.782 50.6208C492.951 51.0932 493.315 51.5092 493.795 51.7775C494.274 52.0457 494.829 52.144 495.338 52.0509C505.783 50.2484 516.467 49.1853 527.298 48.8708L508.775 114.732C494.227 114.346 478.375 116.31 471.561 117.278L489.817 52.3691C489.905 52.0539 489.891 51.7114 489.774 51.3801C489.658 51.0488 489.444 50.7417 489.157 50.4932C483.979 46.2705 477.995 42.9729 471.599 40.8164C460.818 37.2505 449.745 34.8797 438.646 33.7606C438.207 33.7267 437.786 33.8218 437.446 34.0315C437.107 34.2411 436.867 34.5539 436.763 34.9224L415.771 109.565C415.708 109.787 415.697 110.025 415.738 110.263C415.778 110.501 415.871 110.736 416.009 110.953C416.147 111.171 416.328 111.367 416.543 111.531C416.757 111.694 417 111.822 417.258 111.907C417.44 111.967 417.628 112.004 417.815 112.017C428.536 113.134 439.23 115.431 449.65 118.855C455.031 120.693 460.099 123.397 464.583 126.823L463.462 130.809L416.305 115.297C414.742 114.781 413.395 113.751 412.558 112.434C411.722 111.116 411.464 109.618 411.841 108.268L430.448 42.1102C430.511 41.8875 430.522 41.6502 430.481 41.412C430.44 41.1737 430.348 40.9391 430.21 40.7216C430.072 40.5041 429.89 40.3079 429.676 40.1443C429.461 39.9806 429.218 39.8527 428.96 39.7679C428.702 39.683 428.435 39.6429 428.172 39.6497C427.91 39.6565 427.658 39.7102 427.431 39.8077C427.205 39.9052 427.007 40.0446 426.851 40.2179C426.694 40.3912 426.581 40.595 426.519 40.8178L407.912 106.976C407.282 109.226 407.712 111.723 409.107 113.919C410.501 116.115 412.747 117.831 415.352 118.69L513.597 151.007C516.203 151.862 518.952 151.789 521.241 150.804C523.53 149.82 525.173 148.005 525.808 145.757L544.415 79.5987C544.478 79.3757 544.49 79.138 544.449 78.8993C544.408 78.6605 544.316 78.4254 544.178 78.2074C544.04 77.9894 543.858 77.7928 543.643 77.6289C543.428 77.465 543.184 77.3369 542.926 77.2521Z" fill="#E6E6E6"/>
<path d="M490.301 71.7068C490.423 72.1709 490.74 72.5959 491.185 72.8887C491.63 73.1814 492.165 73.318 492.674 73.2683C492.801 73.2563 505.451 72.0263 511.429 72.3355C511.943 72.3532 512.419 72.1894 512.755 71.8792C513.09 71.569 513.258 71.1373 513.223 70.6768C513.187 70.2163 512.951 69.7639 512.565 69.4167C512.179 69.0695 511.674 68.8553 511.159 68.8202C504.858 68.4947 492.294 69.7172 491.761 69.7692C491.253 69.8196 490.814 70.0519 490.541 70.4152C490.267 70.7785 490.181 71.2431 490.301 71.7068Z" fill="#E6E6E6"/>
<path d="M483.547 93.6131C483.669 94.0771 483.987 94.5022 484.431 94.7949C484.876 95.0877 485.411 95.2242 485.92 95.1746C486.047 95.1625 498.697 93.9325 504.675 94.2418C505.189 94.2595 505.665 94.0956 506.001 93.7855C506.336 93.4753 506.504 93.0436 506.469 92.5831C506.433 92.1226 506.197 91.6701 505.811 91.3229C505.425 90.9757 504.92 90.7615 504.405 90.7264C498.104 90.4009 485.54 91.6235 485.007 91.6755C484.499 91.7258 484.06 91.9582 483.787 92.3215C483.513 92.6848 483.427 93.1493 483.547 93.6131Z" fill="#E6E6E6"/>
<path d="M474.833 60.3014C463.974 54.3563 450.081 53.0458 449.496 52.9928C449.03 52.9498 448.585 53.055 448.243 53.2888C447.901 53.5225 447.685 53.8688 447.637 54.263C447.588 54.6571 447.709 55.0722 447.978 55.4306C448.246 55.7891 448.644 56.0665 449.097 56.2109C449.261 56.2638 449.431 56.2984 449.6 56.3141C449.733 56.3247 463.113 57.5877 473.113 63.0631C473.338 63.1897 473.584 63.279 473.837 63.3258C474.09 63.3727 474.344 63.3761 474.586 63.336C474.827 63.2958 475.051 63.2129 475.244 63.092C475.436 62.971 475.594 62.8145 475.708 62.6316C475.822 62.4486 475.89 62.2428 475.907 62.0262C475.925 61.8095 475.892 61.5863 475.811 61.3695C475.729 61.1527 475.601 60.9466 475.433 60.7632C475.265 60.5799 475.061 60.4229 474.833 60.3014Z" fill="#E6E6E6"/>
<path d="M471.457 71.2537C460.597 65.3103 446.705 63.9982 446.12 63.9452C445.655 63.9022 445.209 64.0074 444.867 64.2412C444.525 64.4749 444.31 64.8212 444.261 65.2153C444.212 65.6095 444.333 66.0246 444.602 66.383C444.871 66.7415 445.269 67.0188 445.721 67.1633C445.886 67.2161 446.055 67.2508 446.224 67.2665C446.357 67.2771 459.738 68.5401 469.737 74.0154C469.962 74.142 470.208 74.2313 470.461 74.2782C470.714 74.325 470.969 74.3285 471.21 74.2883C471.452 74.2482 471.675 74.1652 471.868 74.0443C472.06 73.9234 472.218 73.7669 472.332 73.5839C472.446 73.401 472.514 73.1952 472.532 72.9785C472.549 72.7618 472.516 72.5386 472.435 72.3218C472.353 72.105 472.225 71.899 472.057 71.7156C471.889 71.5322 471.685 71.3752 471.457 71.2537Z" fill="#E6E6E6"/>
<path d="M480.17 104.567C480.291 105.031 480.609 105.456 481.054 105.749C481.499 106.042 482.034 106.178 482.542 106.129C482.669 106.117 495.319 104.887 501.297 105.196C501.818 105.223 502.304 105.063 502.647 104.752C502.991 104.442 503.163 104.005 503.127 103.539C503.092 103.073 502.85 102.615 502.456 102.267C502.062 101.918 501.548 101.707 501.027 101.681C494.726 101.355 482.163 102.578 481.629 102.63C481.122 102.68 480.683 102.912 480.409 103.276C480.135 103.639 480.049 104.103 480.17 104.567Z" fill="#E6E6E6"/>
<path d="M468.08 82.2056C457.22 76.262 443.328 74.9482 442.742 74.8968C442.278 74.8555 441.834 74.9617 441.493 75.1957C441.152 75.4296 440.937 75.7755 440.889 76.1689C440.84 76.5624 440.96 76.9767 441.228 77.335C441.495 77.6932 441.892 77.9709 442.343 78.1167C442.508 78.1691 442.677 78.2032 442.846 78.2182C442.98 78.2289 456.36 79.4919 466.359 84.9674C466.585 85.094 466.831 85.1833 467.084 85.2301C467.337 85.2769 467.591 85.2804 467.833 85.2402C468.074 85.2001 468.298 85.1172 468.49 84.9962C468.683 84.8753 468.841 84.7188 468.955 84.5358C469.069 84.3529 469.136 84.1471 469.154 83.9304C469.172 83.7137 469.139 83.4905 469.057 83.2737C468.976 83.0569 468.848 82.8508 468.68 82.6674C468.512 82.4841 468.308 82.3271 468.08 82.2056Z" fill="#E6E6E6"/>
<path d="M461.325 104.112C450.465 98.1671 436.572 96.8566 435.987 96.8035C435.523 96.7622 435.079 96.8684 434.738 97.1024C434.397 97.3364 434.182 97.6822 434.134 98.0756C434.085 98.4691 434.205 98.8834 434.473 99.2417C434.74 99.5999 435.137 99.8777 435.588 100.023C435.753 100.076 435.922 100.11 436.091 100.125C436.224 100.136 449.605 101.399 459.604 106.874C459.83 107.001 460.076 107.09 460.329 107.137C460.582 107.184 460.836 107.187 461.078 107.147C461.319 107.107 461.543 107.024 461.735 106.903C461.928 106.782 462.086 106.626 462.2 106.443C462.314 106.26 462.382 106.054 462.399 105.837C462.417 105.62 462.384 105.397 462.302 105.18C462.221 104.964 462.093 104.758 461.925 104.574C461.757 104.391 461.553 104.234 461.325 104.112Z" fill="#E6E6E6"/>
<path d="M464.701 93.1595C453.842 87.2142 439.95 85.9021 439.364 85.8507C438.9 85.8094 438.456 85.9156 438.115 86.1495C437.774 86.3835 437.559 86.7294 437.51 87.1228C437.462 87.5163 437.582 87.9306 437.85 88.2888C438.117 88.6471 438.513 88.9248 438.965 89.0705C439.13 89.123 439.299 89.1571 439.468 89.1721C439.601 89.1827 452.982 90.4458 462.981 95.9213C463.207 96.0479 463.453 96.1372 463.706 96.184C463.959 96.2309 464.213 96.2343 464.455 96.1942C464.696 96.154 464.92 96.0711 465.112 95.9501C465.305 95.8292 465.463 95.6727 465.577 95.4898C465.691 95.3068 465.758 95.101 465.776 94.8843C465.794 94.6676 465.761 94.4444 465.679 94.2276C465.598 94.0108 465.47 93.8047 465.302 93.6214C465.134 93.438 464.93 93.281 464.701 93.1595Z" fill="#E6E6E6"/>
<path d="M250.983 5.03098L201.532 85.2118C201.317 85.5615 201.211 85.9534 201.226 86.3381C201.241 86.7228 201.378 87.0831 201.618 87.3735C201.858 87.6639 202.192 87.8714 202.576 87.9699C202.961 88.0684 203.379 88.0535 203.779 87.9271L268.596 67.291C269.131 67.1204 269.595 66.7611 269.884 66.2923C270.173 65.8235 270.264 65.2835 270.137 64.7911L254.773 5.24595C254.677 4.87909 254.466 4.55826 254.165 4.32394C253.864 4.08963 253.487 3.95232 253.082 3.92932C252.676 3.90633 252.261 3.99868 251.887 4.19474C251.514 4.3908 251.199 4.68178 250.983 5.03098ZM265.615 64.2207L207.697 82.6607L215.539 69.9443L219.027 71.6325C219.259 71.7538 219.519 71.8272 219.792 71.8484C220.065 71.8695 220.345 71.8379 220.617 71.7554C220.888 71.673 221.144 71.5414 221.37 71.3684C221.596 71.1954 221.788 70.9845 221.934 70.7483C222.08 70.512 222.177 70.2551 222.219 69.9928C222.262 69.7305 222.248 69.4681 222.181 69.2211C222.113 68.9741 221.992 68.7475 221.825 68.5548C221.658 68.3621 221.448 68.2071 221.207 68.099L217.724 66.4086L222.123 59.2761L225.606 60.9664C226.075 61.1939 226.64 61.2257 227.176 61.055C227.712 60.8842 228.176 60.5249 228.465 60.0559C228.754 59.587 228.845 59.0469 228.718 58.5545C228.59 58.062 228.256 57.6576 227.787 57.4302L224.303 55.7398L228.702 48.6073L232.186 50.2976C232.655 50.5251 233.219 50.5569 233.755 50.3862C234.291 50.2154 234.755 49.8561 235.044 49.3871C235.333 48.9182 235.424 48.3781 235.297 47.8857C235.17 47.3932 234.835 46.9888 234.366 46.7614L230.882 45.071L235.281 37.9384L238.765 39.6288C238.997 39.7414 239.255 39.8072 239.524 39.8224C239.794 39.8376 240.069 39.8019 240.334 39.7174C240.6 39.6328 240.85 39.5011 241.071 39.3297C241.292 39.1582 241.48 38.9505 241.623 38.7183C241.766 38.4861 241.862 38.234 241.906 37.9764C241.949 37.7188 241.939 37.4607 241.876 37.2169C241.813 36.973 241.698 36.7482 241.539 36.5553C241.379 36.3624 241.177 36.2052 240.945 36.0925L237.462 34.4022L241.861 27.2696L245.348 28.9578C245.58 29.079 245.84 29.1522 246.113 29.1731C246.387 29.1941 246.667 29.1623 246.938 29.0797C247.209 28.9971 247.465 28.8653 247.691 28.6922C247.917 28.5191 248.109 28.3081 248.255 28.0717C248.4 27.8354 248.497 27.5784 248.539 27.3161C248.582 27.0538 248.568 26.7914 248.5 26.5445C248.432 26.2975 248.311 26.0711 248.144 25.8785C247.977 25.6859 247.766 25.531 247.526 25.4231L244.043 23.7327L251.886 11.0124L265.615 64.2207Z" fill="#E6E6E6"/>
<path d="M245.834 40.753L231.852 63.4235C231.637 63.7732 231.531 64.1651 231.546 64.5498C231.561 64.9345 231.698 65.2948 231.938 65.5852C232.178 65.8756 232.512 66.0831 232.896 66.1816C233.281 66.2801 233.7 66.2652 234.099 66.1388L252.425 60.3041C252.961 60.1335 253.425 59.7742 253.714 59.3054C254.003 58.8365 254.094 58.2965 253.967 57.8042L249.623 40.9683C249.528 40.6017 249.316 40.2811 249.015 40.047C248.715 39.8128 248.338 39.6756 247.933 39.6526C247.528 39.6296 247.112 39.7218 246.739 39.9176C246.365 40.1134 246.051 40.4041 245.834 40.753ZM249.446 57.2335L238.017 60.8724L246.737 46.7344L249.446 57.2335Z" fill="#E6E6E6"/>
<path d="M323.083 501.233L282.636 502.976C280.995 503.048 279.439 503.759 278.311 504.952C277.183 506.144 276.574 507.722 276.618 509.338L277.745 549.175C277.794 550.79 278.491 552.31 279.683 553.402C280.876 554.495 282.467 555.069 284.108 555L324.559 553.258C326.2 553.184 327.754 552.473 328.881 551.281C330.008 550.088 330.617 548.511 330.573 546.895L329.446 507.063C329.399 505.447 328.702 503.925 327.509 502.832C326.316 501.74 324.724 501.164 323.083 501.233V501.233ZM280.743 509.161C280.728 508.622 280.931 508.095 281.308 507.697C281.684 507.299 282.203 507.062 282.751 507.038L300.912 506.256L301.475 526.174L281.249 527.045L280.743 509.161ZM283.993 550.937C283.445 550.961 282.914 550.769 282.516 550.404C282.118 550.04 281.886 549.532 281.87 548.993L281.364 531.108L301.59 530.237L302.154 550.155L283.993 550.937ZM326.447 547.073C326.462 547.612 326.259 548.138 325.883 548.536C325.507 548.934 324.988 549.171 324.44 549.195L306.279 549.977L305.716 530.059L325.941 529.188L326.447 547.073ZM305.601 525.996L305.037 506.078L323.198 505.296C323.746 505.273 324.277 505.465 324.675 505.829C325.073 506.194 325.305 506.701 325.32 507.241L325.826 525.125L305.601 525.996Z" fill="#E6E6E6"/>
<path d="M297.421 514.343L293.295 514.52L293.181 510.457L289.055 510.635L289.17 514.698L285.045 514.876L285.16 518.939L289.285 518.761L289.4 522.824L293.525 522.646L293.41 518.583L297.536 518.406L297.421 514.343Z" fill="#E6E6E6"/>
<path d="M310.142 542.715L313.142 545.463L315.979 542.464L318.978 545.212L321.815 542.212L318.815 539.464L321.652 536.465L318.653 533.717L315.816 536.716L312.817 533.968L309.98 536.968L312.979 539.716L310.142 542.715Z" fill="#E6E6E6"/>
<path d="M308.848 514.078L321.169 513.553L321.283 517.555L308.962 518.08L308.848 514.078Z" fill="#E6E6E6"/>
<path d="M286.423 543.555L294.841 534.523L297.808 537.281L289.39 546.313L286.423 543.555Z" fill="#E6E6E6"/>
</svg>
